<svg aria-hidden="true" style="width:0;height:0;position:absolute;overflow:hidden" xmlns="http://www.w3.org/2000/svg"><defs><symbol id="ice-tea" viewBox="0 0 32 32"><path d="M6.178 8.114C7.101 3.465 11.147.01 16 .01s8.899 3.456 9.811 8.041l.011.064A3.006 3.006 0 0 1 28 11v2.001c0 1.386-.94 2.552-2.217 2.897l-.021.005-1.544 12.346a2.003 2.003 0 0 1-1.984 1.752H9.766a2 2 0 0 1-1.983-1.742l-.001-.01-1.544-12.346A3.006 3.006 0 0 1 4 13.001V11a3 3 0 0 1 2.157-2.88l.021-.005zM8.252 8h15.496C22.825 4.524 19.707 2.004 16 2.004s-6.825 2.52-7.735 5.94L8.252 8zm15.482 8H8.266l1.5 12h12.468l1.5-12zM7 14h18a1 1 0 0 0 1-1v-2a1 1 0 0 0-1-1H7a1 1 0 0 0-1 1v2a1 1 0 0 0 1 1zm5 6h2v2h-2v-2zm6 2h2v2h-2v-2zm-4 2h2v2h-2v-2zm2-6h2v2h-2v-2z"/></symbol></defs></svg>