<svg aria-hidden="true" style="position: absolute; width: 0; height: 0; overflow: hidden;" version="1.1" xmlns="http://www.w3.org/2000/svg" xmlns:xlink="http://www.w3.org/1999/xlink">
<defs>
<symbol id="ice-tea" viewBox="0 0 32 32">
<path d="M6.178 8.114c0.923-4.649 4.969-8.104 9.822-8.104s8.899 3.456 9.811 8.041l0.011 0.064c1.268 0.37 2.178 1.521 2.178 2.885 0 0 0 0.001 0 0.001v-0 2c0 0 0 0 0 0 0 1.386-0.94 2.552-2.217 2.897l-0.021 0.005-1.544 12.346c-0.128 0.992-0.967 1.752-1.984 1.752h-12.468c-1.017-0-1.856-0.759-1.983-1.742l-0.001-0.010-1.544-12.346c-1.298-0.349-2.238-1.516-2.238-2.902 0-0 0-0 0-0v0-2c0-0 0-0.001 0-0.001 0-1.364 0.91-2.516 2.157-2.88l0.021-0.005zM8.252 8h15.496c-0.923-3.476-4.041-5.996-7.748-5.996s-6.825 2.52-7.735 5.94l-0.013 0.056zM23.734 16h-15.468l1.5 12h12.468l1.5-12zM7 14h18c0.552 0 1-0.448 1-1v0-2c0-0.552-0.448-1-1-1v0h-18c-0.552 0-1 0.448-1 1v0 2c0 0.552 0.448 1 1 1v0zM12 20h2v2h-2v-2zM18 22h2v2h-2v-2zM14 24h2v2h-2v-2zM16 18h2v2h-2v-2z"></path>
</symbol>
</defs>
</svg>
